{"title":"My.Ghost.Story.S02E04.HDTV.XviD-tNe.avi","uid":6340548,"size":366800896,"categoryP":"video","categoryS":"tv_shows","magnet":"?xt=urn:btih:1f5c2fd6ea8c621ed740f9193db9f2048e80d23e&amp;dn=My.Ghost.Story.S02E04.HDTV.XviD-tNe.avi&amp;tr=udp%3A%2F%2Ftracker.openbittorrent.com%3A80&amp;tr=udp%3A%2F%2Fopen.demonii.com%3A1337&amp;tr=udp%3A%2F%2Ftracker.coppersurfer.tk%3A6969&amp;tr=udp%3A%2F%2Fexodus.desync.com%3A6969","seeders":1,"leechers":0,"uploader":"trialNerror","files":1,"time":1303645699,"description":"Format                           : AVI\nFormat/Info                      : Audio Video Interleave\nFile size                        : 350 MiB\nDuration                         : 44mn 59s\nOverall bit rate                 : 1 087 Kbps\nWriting application              : VirtualDubMod 1.5.10.2 (build 2542/release)\nWriting library                  : VirtualDubMod build 2542/release\n\nVideo\nID                               : 0\nFormat                           : MPEG-4 Visual\nFormat profile                   : Advanced Simple@L5\nFormat settings, BVOP            : Yes\nFormat settings, QPel            : No\nFormat settings, GMC             : No warppoints\nFormat settings, Matrix          : Default (H.263)\nCodec ID                         : XVID\nCodec ID/Hint                    : XviD\nDuration                         : 44mn 59s\nBit rate                         : 952 Kbps\nWidth                            : 624 pixels\nHeight                           : 352 pixels\nDisplay aspect ratio             : 16:9\nFrame rate                       : 29.970 fps\nColor space                      : YUV\nChroma subsampling               : 4:2:0\nBit depth                        : 8 bits\nScan type                        : Progressive\nBits/(Pixel*Frame)               : 0.145\nStream size                      : 306 MiB (88%)\nWriting library                  : XviD 58\n\nAudio\nID                               : 1\nFormat                           : MPEG Audio\nFormat version                   : Version 1\nFormat profile                   : Layer 3\nMode                             : Joint stereo\nCodec ID                         : 55\nCodec ID/Hint                    : MP3\nDuration                         : 44mn 59s\nBit rate mode                    : Variable\nBit rate                         : 121 Kbps\nNominal bit rate                 : 128 Kbps\nChannel(s)                       : 2 channels\nSampling rate                    : 48.0 KHz\nStream size                      : 38.8 MiB (11%)\nAlignment                        : Aligned on interleaves\nInterleave, duration             : 24 ms (0.72 video frame)\nInterleave, preload duration     : 585 ms\nWriting library                  : LAME3.99a\nEncoding settings                : -m j -V 5 -q 2 -lowpass 17 --abr 128","torrent":{"xt":"urn:btih:1f5c2fd6ea8c621ed740f9193db9f2048e80d23e","amp;dn":"My.Ghost.Story.S02E04.HDTV.XviD-tNe.avi","amp;tr":["udp%3A%2F%2Ftracker.openbittorrent.com%3A80","udp%3A%2F%2Fopen.demonii.com%3A1337","udp%3A%2F%2Ftracker.coppersurfer.tk%3A6969","udp%3A%2F%2Fexodus.desync.com%3A6969"],"infoHash":"1f5c2fd6ea8c621ed740f9193db9f2048e80d23e","infoHashBuffer":{"type":"Buffer","data":[31,92,47,214,234,140,98,30,215,64,249,25,61,185,242,4,142,128,210,62]},"announce":[],"urlList":[]}}